<?xml version="1.0" encoding="utf-8" standalone="no"?>
<!DOCTYPE svg PUBLIC "-//W3C//DTD SVG 1.1//EN"
  "http://www.w3.org/Graphics/SVG/1.1/DTD/svg11.dtd">
<svg xmlns:xlink="http://www.w3.org/1999/xlink" width="570.891562pt" height="318.961875pt" viewBox="0 0 570.891562 318.961875" xmlns="http://www.w3.org/2000/svg" version="1.1">
 <metadata>
  <rdf:RDF xmlns:dc="http://purl.org/dc/elements/1.1/" xmlns:cc="http://creativecommons.org/ns#" xmlns:rdf="http://www.w3.org/1999/02/22-rdf-syntax-ns#">
   <cc:Work>
    <dc:type rdf:resource="http://purl.org/dc/dcmitype/StillImage"/>
    <dc:date>2026-04-13T16:09:07.899043</dc:date>
    <dc:format>image/svg+xml</dc:format>
    <dc:creator>
     <cc:Agent>
      <dc:title>Matplotlib v3.8.4, https://matplotlib.org/</dc:title>
     </cc:Agent>
    </dc:creator>
   </cc:Work>
  </rdf:RDF>
 </metadata>
 <defs>
  <style type="text/css">*{stroke-linejoin: round; stroke-linecap: butt}</style>
 </defs>
 <g id="figure_1">
  <g id="patch_1">
   <path d="M 0 318.961875 
L 570.891562 318.961875 
L 570.891562 0 
L 0 0 
z
" style="fill: #ffffff"/>
  </g>
  <g id="axes_1">
   <g id="patch_2">
    <path d="M 108.021563 279.937812 
L 563.691562 279.937812 
L 563.691562 32.837812 
L 108.021563 32.837812 
z
" style="fill: #ffffff"/>
   </g>
   <g id="matplotlib.axis_1">
    <g id="xtick_1">
     <g id="line2d_1">
      <path d="M 108.021563 279.937812 
L 108.021563 32.837812 
" clip-path="url(#pf52e5a4f17)" style="fill: none; stroke-dasharray: 1.85,0.8; stroke-dashoffset: 0; stroke: #cccccc; stroke-opacity: 0.3; stroke-width: 0.5"/>
     </g>
     <g id="line2d_2">
      <defs>
       <path id="mae23519427" d="M 0 0 
L 0 4 
" style="stroke: #262626"/>
      </defs>
      <g>
       <use xlink:href="#mae23519427" x="108.021563" y="279.937812" style="fill: #262626; stroke: #262626"/>
      </g>
     </g>
     <g id="text_1">
      <!-- 0 -->
      <g style="fill: #262626" transform="translate(105.158438 294.276406) scale(0.09 -0.09)">
       <defs>
        <path id="DejaVuSans-30" d="M 2034 4250 
Q 1547 4250 1301 3770 
Q 1056 3291 1056 2328 
Q 1056 1369 1301 889 
Q 1547 409 2034 409 
Q 2525 409 2770 889 
Q 3016 1369 3016 2328 
Q 3016 3291 2770 3770 
Q 2525 4250 2034 4250 
z
M 2034 4750 
Q 2819 4750 3233 4129 
Q 3647 3509 3647 2328 
Q 3647 1150 3233 529 
Q 2819 -91 2034 -91 
Q 1250 -91 836 529 
Q 422 1150 422 2328 
Q 422 3509 836 4129 
Q 1250 4750 2034 4750 
z
" transform="scale(0.015625)"/>
       </defs>
       <use xlink:href="#DejaVuSans-30"/>
      </g>
     </g>
    </g>
    <g id="xtick_2">
     <g id="line2d_3">
      <path d="M 185.253766 279.937812 
L 185.253766 32.837812 
" clip-path="url(#pf52e5a4f17)" style="fill: none; stroke-dasharray: 1.85,0.8; stroke-dashoffset: 0; stroke: #cccccc; stroke-opacity: 0.3; stroke-width: 0.5"/>
     </g>
     <g id="line2d_4">
      <g>
       <use xlink:href="#mae23519427" x="185.253766" y="279.937812" style="fill: #262626; stroke: #262626"/>
      </g>
     </g>
     <g id="text_2">
      <!-- 10 -->
      <g style="fill: #262626" transform="translate(179.527516 294.276406) scale(0.09 -0.09)">
       <defs>
        <path id="DejaVuSans-31" d="M 794 531 
L 1825 531 
L 1825 4091 
L 703 3866 
L 703 4441 
L 1819 4666 
L 2450 4666 
L 2450 531 
L 3481 531 
L 3481 0 
L 794 0 
L 794 531 
z
" transform="scale(0.015625)"/>
       </defs>
       <use xlink:href="#DejaVuSans-31"/>
       <use xlink:href="#DejaVuSans-30" x="63.623047"/>
      </g>
     </g>
    </g>
    <g id="xtick_3">
     <g id="line2d_5">
      <path d="M 262.485969 279.937812 
L 262.485969 32.837812 
" clip-path="url(#pf52e5a4f17)" style="fill: none; stroke-dasharray: 1.85,0.8; stroke-dashoffset: 0; stroke: #cccccc; stroke-opacity: 0.3; stroke-width: 0.5"/>
     </g>
     <g id="line2d_6">
      <g>
       <use xlink:href="#mae23519427" x="262.485969" y="279.937812" style="fill: #262626; stroke: #262626"/>
      </g>
     </g>
     <g id="text_3">
      <!-- 20 -->
      <g style="fill: #262626" transform="translate(256.759719 294.276406) scale(0.09 -0.09)">
       <defs>
        <path id="DejaVuSans-32" d="M 1228 531 
L 3431 531 
L 3431 0 
L 469 0 
L 469 531 
Q 828 903 1448 1529 
Q 2069 2156 2228 2338 
Q 2531 2678 2651 2914 
Q 2772 3150 2772 3378 
Q 2772 3750 2511 3984 
Q 2250 4219 1831 4219 
Q 1534 4219 1204 4116 
Q 875 4013 500 3803 
L 500 4441 
Q 881 4594 1212 4672 
Q 1544 4750 1819 4750 
Q 2544 4750 2975 4387 
Q 3406 4025 3406 3419 
Q 3406 3131 3298 2873 
Q 3191 2616 2906 2266 
Q 2828 2175 2409 1742 
Q 1991 1309 1228 531 
z
" transform="scale(0.015625)"/>
       </defs>
       <use xlink:href="#DejaVuSans-32"/>
       <use xlink:href="#DejaVuSans-30" x="63.623047"/>
      </g>
     </g>
    </g>
    <g id="xtick_4">
     <g id="line2d_7">
      <path d="M 339.718173 279.937812 
L 339.718173 32.837812 
" clip-path="url(#pf52e5a4f17)" style="fill: none; stroke-dasharray: 1.85,0.8; stroke-dashoffset: 0; stroke: #cccccc; stroke-opacity: 0.3; stroke-width: 0.5"/>
     </g>
     <g id="line2d_8">
      <g>
       <use xlink:href="#mae23519427" x="339.718173" y="279.937812" style="fill: #262626; stroke: #262626"/>
      </g>
     </g>
     <g id="text_4">
      <!-- 30 -->
      <g style="fill: #262626" transform="translate(333.991923 294.276406) scale(0.09 -0.09)">
       <defs>
        <path id="DejaVuSans-33" d="M 2597 2516 
Q 3050 2419 3304 2112 
Q 3559 1806 3559 1356 
Q 3559 666 3084 287 
Q 2609 -91 1734 -91 
Q 1441 -91 1130 -33 
Q 819 25 488 141 
L 488 750 
Q 750 597 1062 519 
Q 1375 441 1716 441 
Q 2309 441 2620 675 
Q 2931 909 2931 1356 
Q 2931 1769 2642 2001 
Q 2353 2234 1838 2234 
L 1294 2234 
L 1294 2753 
L 1863 2753 
Q 2328 2753 2575 2939 
Q 2822 3125 2822 3475 
Q 2822 3834 2567 4026 
Q 2313 4219 1838 4219 
Q 1578 4219 1281 4162 
Q 984 4106 628 3988 
L 628 4550 
Q 988 4650 1302 4700 
Q 1616 4750 1894 4750 
Q 2613 4750 3031 4423 
Q 3450 4097 3450 3541 
Q 3450 3153 3228 2886 
Q 3006 2619 2597 2516 
z
" transform="scale(0.015625)"/>
       </defs>
       <use xlink:href="#DejaVuSans-33"/>
       <use xlink:href="#DejaVuSans-30" x="63.623047"/>
      </g>
     </g>
    </g>
    <g id="xtick_5">
     <g id="line2d_9">
      <path d="M 416.950376 279.937812 
L 416.950376 32.837812 
" clip-path="url(#pf52e5a4f17)" style="fill: none; stroke-dasharray: 1.85,0.8; stroke-dashoffset: 0; stroke: #cccccc; stroke-opacity: 0.3; stroke-width: 0.5"/>
     </g>
     <g id="line2d_10">
      <g>
       <use xlink:href="#mae23519427" x="416.950376" y="279.937812" style="fill: #262626; stroke: #262626"/>
      </g>
     </g>
     <g id="text_5">
      <!-- 40 -->
      <g style="fill: #262626" transform="translate(411.224126 294.276406) scale(0.09 -0.09)">
       <defs>
        <path id="DejaVuSans-34" d="M 2419 4116 
L 825 1625 
L 2419 1625 
L 2419 4116 
z
M 2253 4666 
L 3047 4666 
L 3047 1625 
L 3713 1625 
L 3713 1100 
L 3047 1100 
L 3047 0 
L 2419 0 
L 2419 1100 
L 313 1100 
L 313 1709 
L 2253 4666 
z
" transform="scale(0.015625)"/>
       </defs>
       <use xlink:href="#DejaVuSans-34"/>
       <use xlink:href="#DejaVuSans-30" x="63.623047"/>
      </g>
     </g>
    </g>
    <g id="xtick_6">
     <g id="line2d_11">
      <path d="M 494.182579 279.937812 
L 494.182579 32.837812 
" clip-path="url(#pf52e5a4f17)" style="fill: none; stroke-dasharray: 1.85,0.8; stroke-dashoffset: 0; stroke: #cccccc; stroke-opacity: 0.3; stroke-width: 0.5"/>
     </g>
     <g id="line2d_12">
      <g>
       <use xlink:href="#mae23519427" x="494.182579" y="279.937812" style="fill: #262626; stroke: #262626"/>
      </g>
     </g>
     <g id="text_6">
      <!-- 50 -->
      <g style="fill: #262626" transform="translate(488.456329 294.276406) scale(0.09 -0.09)">
       <defs>
        <path id="DejaVuSans-35" d="M 691 4666 
L 3169 4666 
L 3169 4134 
L 1269 4134 
L 1269 2991 
Q 1406 3038 1543 3061 
Q 1681 3084 1819 3084 
Q 2600 3084 3056 2656 
Q 3513 2228 3513 1497 
Q 3513 744 3044 326 
Q 2575 -91 1722 -91 
Q 1428 -91 1123 -41 
Q 819 9 494 109 
L 494 744 
Q 775 591 1075 516 
Q 1375 441 1709 441 
Q 2250 441 2565 725 
Q 2881 1009 2881 1497 
Q 2881 1984 2565 2268 
Q 2250 2553 1709 2553 
Q 1456 2553 1204 2497 
Q 953 2441 691 2322 
L 691 4666 
z
" transform="scale(0.015625)"/>
       </defs>
       <use xlink:href="#DejaVuSans-35"/>
       <use xlink:href="#DejaVuSans-30" x="63.623047"/>
      </g>
     </g>
    </g>
    <g id="text_7">
     <!-- Number of DEGs -->
     <g style="fill: #262626" transform="translate(280.50375 309.26625) scale(0.12 -0.12)">
      <defs>
       <path id="DejaVuSans-Bold-4e" d="M 588 4666 
L 1931 4666 
L 3628 1466 
L 3628 4666 
L 4769 4666 
L 4769 0 
L 3425 0 
L 1728 3200 
L 1728 0 
L 588 0 
L 588 4666 
z
" transform="scale(0.015625)"/>
       <path id="DejaVuSans-Bold-75" d="M 500 1363 
L 500 3500 
L 1625 3500 
L 1625 3150 
Q 1625 2866 1622 2436 
Q 1619 2006 1619 1863 
Q 1619 1441 1641 1255 
Q 1663 1069 1716 984 
Q 1784 875 1895 815 
Q 2006 756 2150 756 
Q 2500 756 2700 1025 
Q 2900 1294 2900 1772 
L 2900 3500 
L 4019 3500 
L 4019 0 
L 2900 0 
L 2900 506 
Q 2647 200 2364 54 
Q 2081 -91 1741 -91 
Q 1134 -91 817 281 
Q 500 653 500 1363 
z
" transform="scale(0.015625)"/>
       <path id="DejaVuSans-Bold-6d" d="M 3781 2919 
Q 3994 3244 4286 3414 
Q 4578 3584 4928 3584 
Q 5531 3584 5847 3212 
Q 6163 2841 6163 2131 
L 6163 0 
L 5038 0 
L 5038 1825 
Q 5041 1866 5042 1909 
Q 5044 1953 5044 2034 
Q 5044 2406 4934 2573 
Q 4825 2741 4581 2741 
Q 4263 2741 4089 2478 
Q 3916 2216 3909 1719 
L 3909 0 
L 2784 0 
L 2784 1825 
Q 2784 2406 2684 2573 
Q 2584 2741 2328 2741 
Q 2006 2741 1831 2477 
Q 1656 2213 1656 1722 
L 1656 0 
L 531 0 
L 531 3500 
L 1656 3500 
L 1656 2988 
Q 1863 3284 2130 3434 
Q 2397 3584 2719 3584 
Q 3081 3584 3359 3409 
Q 3638 3234 3781 2919 
z
" transform="scale(0.015625)"/>
       <path id="DejaVuSans-Bold-62" d="M 2400 722 
Q 2759 722 2948 984 
Q 3138 1247 3138 1747 
Q 3138 2247 2948 2509 
Q 2759 2772 2400 2772 
Q 2041 2772 1848 2508 
Q 1656 2244 1656 1747 
Q 1656 1250 1848 986 
Q 2041 722 2400 722 
z
M 1656 2988 
Q 1888 3294 2169 3439 
Q 2450 3584 2816 3584 
Q 3463 3584 3878 3070 
Q 4294 2556 4294 1747 
Q 4294 938 3878 423 
Q 3463 -91 2816 -91 
Q 2450 -91 2169 54 
Q 1888 200 1656 506 
L 1656 0 
L 538 0 
L 538 4863 
L 1656 4863 
L 1656 2988 
z
" transform="scale(0.015625)"/>
       <path id="DejaVuSans-Bold-65" d="M 4031 1759 
L 4031 1441 
L 1416 1441 
Q 1456 1047 1700 850 
Q 1944 653 2381 653 
Q 2734 653 3104 758 
Q 3475 863 3866 1075 
L 3866 213 
Q 3469 63 3072 -14 
Q 2675 -91 2278 -91 
Q 1328 -91 801 392 
Q 275 875 275 1747 
Q 275 2603 792 3093 
Q 1309 3584 2216 3584 
Q 3041 3584 3536 3087 
Q 4031 2591 4031 1759 
z
M 2881 2131 
Q 2881 2450 2695 2645 
Q 2509 2841 2209 2841 
Q 1884 2841 1681 2658 
Q 1478 2475 1428 2131 
L 2881 2131 
z
" transform="scale(0.015625)"/>
       <path id="DejaVuSans-Bold-72" d="M 3138 2547 
Q 2991 2616 2845 2648 
Q 2700 2681 2553 2681 
Q 2122 2681 1889 2404 
Q 1656 2128 1656 1613 
L 1656 0 
L 538 0 
L 538 3500 
L 1656 3500 
L 1656 2925 
Q 1872 3269 2151 3426 
Q 2431 3584 2822 3584 
Q 2878 3584 2943 3579 
Q 3009 3575 3134 3559 
L 3138 2547 
z
" transform="scale(0.015625)"/>
       <path id="DejaVuSans-Bold-20" transform="scale(0.015625)"/>
       <path id="DejaVuSans-Bold-6f" d="M 2203 2784 
Q 1831 2784 1636 2517 
Q 1441 2250 1441 1747 
Q 1441 1244 1636 976 
Q 1831 709 2203 709 
Q 2569 709 2762 976 
Q 2956 1244 2956 1747 
Q 2956 2250 2762 2517 
Q 2569 2784 2203 2784 
z
M 2203 3584 
Q 3106 3584 3614 3096 
Q 4122 2609 4122 1747 
Q 4122 884 3614 396 
Q 3106 -91 2203 -91 
Q 1297 -91 786 396 
Q 275 884 275 1747 
Q 275 2609 786 3096 
Q 1297 3584 2203 3584 
z
" transform="scale(0.015625)"/>
       <path id="DejaVuSans-Bold-66" d="M 2841 4863 
L 2841 4128 
L 2222 4128 
Q 1984 4128 1890 4042 
Q 1797 3956 1797 3744 
L 1797 3500 
L 2753 3500 
L 2753 2700 
L 1797 2700 
L 1797 0 
L 678 0 
L 678 2700 
L 122 2700 
L 122 3500 
L 678 3500 
L 678 3744 
Q 678 4316 997 4589 
Q 1316 4863 1984 4863 
L 2841 4863 
z
" transform="scale(0.015625)"/>
       <path id="DejaVuSans-Bold-44" d="M 1791 3756 
L 1791 909 
L 2222 909 
Q 2959 909 3348 1275 
Q 3738 1641 3738 2338 
Q 3738 3031 3350 3393 
Q 2963 3756 2222 3756 
L 1791 3756 
z
M 588 4666 
L 1856 4666 
Q 2919 4666 3439 4514 
Q 3959 4363 4331 4000 
Q 4659 3684 4818 3271 
Q 4978 2859 4978 2338 
Q 4978 1809 4818 1395 
Q 4659 981 4331 666 
Q 3956 303 3431 151 
Q 2906 0 1856 0 
L 588 0 
L 588 4666 
z
" transform="scale(0.015625)"/>
       <path id="DejaVuSans-Bold-45" d="M 588 4666 
L 3834 4666 
L 3834 3756 
L 1791 3756 
L 1791 2888 
L 3713 2888 
L 3713 1978 
L 1791 1978 
L 1791 909 
L 3903 909 
L 3903 0 
L 588 0 
L 588 4666 
z
" transform="scale(0.015625)"/>
       <path id="DejaVuSans-Bold-47" d="M 4781 347 
Q 4331 128 3847 18 
Q 3363 -91 2847 -91 
Q 1681 -91 1000 561 
Q 319 1213 319 2328 
Q 319 3456 1012 4103 
Q 1706 4750 2913 4750 
Q 3378 4750 3804 4662 
Q 4231 4575 4609 4403 
L 4609 3438 
Q 4219 3659 3833 3768 
Q 3447 3878 3059 3878 
Q 2341 3878 1952 3476 
Q 1563 3075 1563 2328 
Q 1563 1588 1938 1184 
Q 2313 781 3003 781 
Q 3191 781 3352 804 
Q 3513 828 3641 878 
L 3641 1784 
L 2906 1784 
L 2906 2591 
L 4781 2591 
L 4781 347 
z
" transform="scale(0.015625)"/>
       <path id="DejaVuSans-Bold-73" d="M 3272 3391 
L 3272 2541 
Q 2913 2691 2578 2766 
Q 2244 2841 1947 2841 
Q 1628 2841 1473 2761 
Q 1319 2681 1319 2516 
Q 1319 2381 1436 2309 
Q 1553 2238 1856 2203 
L 2053 2175 
Q 2913 2066 3209 1816 
Q 3506 1566 3506 1031 
Q 3506 472 3093 190 
Q 2681 -91 1863 -91 
Q 1516 -91 1145 -36 
Q 775 19 384 128 
L 384 978 
Q 719 816 1070 734 
Q 1422 653 1784 653 
Q 2113 653 2278 743 
Q 2444 834 2444 1013 
Q 2444 1163 2330 1236 
Q 2216 1309 1875 1350 
L 1678 1375 
Q 931 1469 631 1722 
Q 331 1975 331 2491 
Q 331 3047 712 3315 
Q 1094 3584 1881 3584 
Q 2191 3584 2531 3537 
Q 2872 3491 3272 3391 
z
" transform="scale(0.015625)"/>
      </defs>
      <use xlink:href="#DejaVuSans-Bold-4e"/>
      <use xlink:href="#DejaVuSans-Bold-75" x="83.691406"/>
      <use xlink:href="#DejaVuSans-Bold-6d" x="154.882812"/>
      <use xlink:href="#DejaVuSans-Bold-62" x="259.082031"/>
      <use xlink:href="#DejaVuSans-Bold-65" x="330.664062"/>
      <use xlink:href="#DejaVuSans-Bold-72" x="398.486328"/>
      <use xlink:href="#DejaVuSans-Bold-20" x="447.802734"/>
      <use xlink:href="#DejaVuSans-Bold-6f" x="482.617188"/>
      <use xlink:href="#DejaVuSans-Bold-66" x="551.318359"/>
      <use xlink:href="#DejaVuSans-Bold-20" x="594.824219"/>
      <use xlink:href="#DejaVuSans-Bold-44" x="629.638672"/>
      <use xlink:href="#DejaVuSans-Bold-45" x="712.646484"/>
      <use xlink:href="#DejaVuSans-Bold-47" x="780.957031"/>
      <use xlink:href="#DejaVuSans-Bold-73" x="863.037109"/>
     </g>
    </g>
   </g>
   <g id="matplotlib.axis_2">
    <g id="ytick_1">
     <g id="line2d_13">
      <defs>
       <path id="m996a8270e7" d="M 0 0 
L -4 0 
" style="stroke: #262626"/>
      </defs>
      <g>
       <use xlink:href="#m996a8270e7" x="108.021563" y="48.749555" style="fill: #262626; stroke: #262626"/>
      </g>
     </g>
     <g id="text_8">
      <!-- OXPHOS (all) -->
      <g style="fill: #262626" transform="translate(34.392656 52.168852) scale(0.09 -0.09)">
       <defs>
        <path id="DejaVuSans-Bold-4f" d="M 2719 3878 
Q 2169 3878 1866 3472 
Q 1563 3066 1563 2328 
Q 1563 1594 1866 1187 
Q 2169 781 2719 781 
Q 3272 781 3575 1187 
Q 3878 1594 3878 2328 
Q 3878 3066 3575 3472 
Q 3272 3878 2719 3878 
z
M 2719 4750 
Q 3844 4750 4481 4106 
Q 5119 3463 5119 2328 
Q 5119 1197 4481 553 
Q 3844 -91 2719 -91 
Q 1597 -91 958 553 
Q 319 1197 319 2328 
Q 319 3463 958 4106 
Q 1597 4750 2719 4750 
z
" transform="scale(0.015625)"/>
        <path id="DejaVuSans-Bold-58" d="M 3188 2381 
L 4806 0 
L 3553 0 
L 2463 1594 
L 1381 0 
L 122 0 
L 1741 2381 
L 184 4666 
L 1441 4666 
L 2463 3163 
L 3481 4666 
L 4744 4666 
L 3188 2381 
z
" transform="scale(0.015625)"/>
        <path id="DejaVuSans-Bold-50" d="M 588 4666 
L 2584 4666 
Q 3475 4666 3951 4270 
Q 4428 3875 4428 3144 
Q 4428 2409 3951 2014 
Q 3475 1619 2584 1619 
L 1791 1619 
L 1791 0 
L 588 0 
L 588 4666 
z
M 1791 3794 
L 1791 2491 
L 2456 2491 
Q 2806 2491 2997 2661 
Q 3188 2831 3188 3144 
Q 3188 3456 2997 3625 
Q 2806 3794 2456 3794 
L 1791 3794 
z
" transform="scale(0.015625)"/>
        <path id="DejaVuSans-Bold-48" d="M 588 4666 
L 1791 4666 
L 1791 2888 
L 3566 2888 
L 3566 4666 
L 4769 4666 
L 4769 0 
L 3566 0 
L 3566 1978 
L 1791 1978 
L 1791 0 
L 588 0 
L 588 4666 
z
" transform="scale(0.015625)"/>
        <path id="DejaVuSans-Bold-53" d="M 3834 4519 
L 3834 3531 
Q 3450 3703 3084 3790 
Q 2719 3878 2394 3878 
Q 1963 3878 1756 3759 
Q 1550 3641 1550 3391 
Q 1550 3203 1689 3098 
Q 1828 2994 2194 2919 
L 2706 2816 
Q 3484 2659 3812 2340 
Q 4141 2022 4141 1434 
Q 4141 663 3683 286 
Q 3225 -91 2284 -91 
Q 1841 -91 1394 -6 
Q 947 78 500 244 
L 500 1259 
Q 947 1022 1364 901 
Q 1781 781 2169 781 
Q 2563 781 2772 912 
Q 2981 1044 2981 1288 
Q 2981 1506 2839 1625 
Q 2697 1744 2272 1838 
L 1806 1941 
Q 1106 2091 782 2419 
Q 459 2747 459 3303 
Q 459 4000 909 4375 
Q 1359 4750 2203 4750 
Q 2588 4750 2994 4692 
Q 3400 4634 3834 4519 
z
" transform="scale(0.015625)"/>
        <path id="DejaVuSans-Bold-28" d="M 2413 -844 
L 1484 -844 
Q 1006 -72 778 623 
Q 550 1319 550 2003 
Q 550 2688 779 3389 
Q 1009 4091 1484 4856 
L 2413 4856 
Q 2013 4116 1813 3408 
Q 1613 2700 1613 2009 
Q 1613 1319 1811 609 
Q 2009 -100 2413 -844 
z
" transform="scale(0.015625)"/>
        <path id="DejaVuSans-Bold-61" d="M 2106 1575 
Q 1756 1575 1579 1456 
Q 1403 1338 1403 1106 
Q 1403 894 1545 773 
Q 1688 653 1941 653 
Q 2256 653 2472 879 
Q 2688 1106 2688 1447 
L 2688 1575 
L 2106 1575 
z
M 3816 1997 
L 3816 0 
L 2688 0 
L 2688 519 
Q 2463 200 2181 54 
Q 1900 -91 1497 -91 
Q 953 -91 614 226 
Q 275 544 275 1050 
Q 275 1666 698 1953 
Q 1122 2241 2028 2241 
L 2688 2241 
L 2688 2328 
Q 2688 2594 2478 2717 
Q 2269 2841 1825 2841 
Q 1466 2841 1156 2769 
Q 847 2697 581 2553 
L 581 3406 
Q 941 3494 1303 3539 
Q 1666 3584 2028 3584 
Q 2975 3584 3395 3211 
Q 3816 2838 3816 1997 
z
" transform="scale(0.015625)"/>
        <path id="DejaVuSans-Bold-6c" d="M 538 4863 
L 1656 4863 
L 1656 0 
L 538 0 
L 538 4863 
z
" transform="scale(0.015625)"/>
        <path id="DejaVuSans-Bold-29" d="M 513 -844 
Q 913 -100 1113 609 
Q 1313 1319 1313 2009 
Q 1313 2700 1113 3408 
Q 913 4116 513 4856 
L 1441 4856 
Q 1916 4091 2145 3389 
Q 2375 2688 2375 2003 
Q 2375 1319 2147 623 
Q 1919 -72 1441 -844 
L 513 -844 
z
" transform="scale(0.015625)"/>
       </defs>
       <use xlink:href="#DejaVuSans-Bold-4f"/>
       <use xlink:href="#DejaVuSans-Bold-58" x="81.384766"/>
       <use xlink:href="#DejaVuSans-Bold-50" x="158.484375"/>
       <use xlink:href="#DejaVuSans-Bold-48" x="231.775391"/>
       <use xlink:href="#DejaVuSans-Bold-4f" x="315.466797"/>
       <use xlink:href="#DejaVuSans-Bold-53" x="400.476562"/>
       <use xlink:href="#DejaVuSans-Bold-20" x="472.498047"/>
       <use xlink:href="#DejaVuSans-Bold-28" x="507.3125"/>
       <use xlink:href="#DejaVuSans-Bold-61" x="553.015625"/>
       <use xlink:href="#DejaVuSans-Bold-6c" x="620.496094"/>
       <use xlink:href="#DejaVuSans-Bold-6c" x="654.773438"/>
       <use xlink:href="#DejaVuSans-Bold-29" x="689.050781"/>
      </g>
     </g>
    </g>
    <g id="ytick_2">
     <g id="line2d_14">
      <g>
       <use xlink:href="#m996a8270e7" x="108.021563" y="64.165776" style="fill: #262626; stroke: #262626"/>
      </g>
     </g>
     <g id="text_9">
      <!-- OXPHOS subunits -->
      <g style="fill: #262626" transform="translate(11.100938 67.585073) scale(0.09 -0.09)">
       <defs>
        <path id="DejaVuSans-Bold-6e" d="M 4056 2131 
L 4056 0 
L 2931 0 
L 2931 347 
L 2931 1631 
Q 2931 2084 2911 2256 
Q 2891 2428 2841 2509 
Q 2775 2619 2662 2680 
Q 2550 2741 2406 2741 
Q 2056 2741 1856 2470 
Q 1656 2200 1656 1722 
L 1656 0 
L 538 0 
L 538 3500 
L 1656 3500 
L 1656 2988 
Q 1909 3294 2193 3439 
Q 2478 3584 2822 3584 
Q 3428 3584 3742 3212 
Q 4056 2841 4056 2131 
z
" transform="scale(0.015625)"/>
        <path id="DejaVuSans-Bold-69" d="M 538 3500 
L 1656 3500 
L 1656 0 
L 538 0 
L 538 3500 
z
M 538 4863 
L 1656 4863 
L 1656 3950 
L 538 3950 
L 538 4863 
z
" transform="scale(0.015625)"/>
        <path id="DejaVuSans-Bold-74" d="M 1759 4494 
L 1759 3500 
L 2913 3500 
L 2913 2700 
L 1759 2700 
L 1759 1216 
Q 1759 972 1856 886 
Q 1953 800 2241 800 
L 2816 800 
L 2816 0 
L 1856 0 
Q 1194 0 917 276 
Q 641 553 641 1216 
L 641 2700 
L 84 2700 
L 84 3500 
L 641 3500 
L 641 4494 
L 1759 4494 
z
" transform="scale(0.015625)"/>
       </defs>
       <use xlink:href="#DejaVuSans-Bold-4f"/>
       <use xlink:href="#DejaVuSans-Bold-58" x="81.384766"/>
       <use xlink:href="#DejaVuSans-Bold-50" x="158.484375"/>
       <use xlink:href="#DejaVuSans-Bold-48" x="231.775391"/>
       <use xlink:href="#DejaVuSans-Bold-4f" x="315.466797"/>
       <use xlink:href="#DejaVuSans-Bold-53" x="400.476562"/>
       <use xlink:href="#DejaVuSans-Bold-20" x="472.498047"/>
       <use xlink:href="#DejaVuSans-Bold-73" x="507.3125"/>
       <use xlink:href="#DejaVuSans-Bold-75" x="566.833984"/>
       <use xlink:href="#DejaVuSans-Bold-62" x="638.025391"/>
       <use xlink:href="#DejaVuSans-Bold-75" x="709.607422"/>
       <use xlink:href="#DejaVuSans-Bold-6e" x="780.798828"/>
       <use xlink:href="#DejaVuSans-Bold-69" x="851.990234"/>
       <use xlink:href="#DejaVuSans-Bold-74" x="886.267578"/>
       <use xlink:href="#DejaVuSans-Bold-73" x="934.070312"/>
      </g>
     </g>
    </g>
    <g id="ytick_3">
     <g id="line2d_15">
      <g>
       <use xlink:href="#m996a8270e7" x="108.021563" y="79.581997" style="fill: #262626; stroke: #262626"/>
      </g>
     </g>
     <g id="text_10">
      <!-- OXPHOS assembly -->
      <g style="fill: #262626" transform="translate(7.2 83.001294) scale(0.09 -0.09)">
       <defs>
        <path id="DejaVuSans-Bold-79" d="M 78 3500 
L 1197 3500 
L 2138 1125 
L 2938 3500 
L 4056 3500 
L 2584 -331 
Q 2363 -916 2067 -1148 
Q 1772 -1381 1288 -1381 
L 641 -1381 
L 641 -647 
L 991 -647 
Q 1275 -647 1404 -556 
Q 1534 -466 1606 -231 
L 1638 -134 
L 78 3500 
z
" transform="scale(0.015625)"/>
       </defs>
       <use xlink:href="#DejaVuSans-Bold-4f"/>
       <use xlink:href="#DejaVuSans-Bold-58" x="81.384766"/>
       <use xlink:href="#DejaVuSans-Bold-50" x="158.484375"/>
       <use xlink:href="#DejaVuSans-Bold-48" x="231.775391"/>
       <use xlink:href="#DejaVuSans-Bold-4f" x="315.466797"/>
       <use xlink:href="#DejaVuSans-Bold-53" x="400.476562"/>
       <use xlink:href="#DejaVuSans-Bold-20" x="472.498047"/>
       <use xlink:href="#DejaVuSans-Bold-61" x="507.3125"/>
       <use xlink:href="#DejaVuSans-Bold-73" x="574.792969"/>
       <use xlink:href="#DejaVuSans-Bold-73" x="634.314453"/>
       <use xlink:href="#DejaVuSans-Bold-65" x="693.835938"/>
       <use xlink:href="#DejaVuSans-Bold-6d" x="761.658203"/>
       <use xlink:href="#DejaVuSans-Bold-62" x="865.857422"/>
       <use xlink:href="#DejaVuSans-Bold-6c" x="937.439453"/>
       <use xlink:href="#DejaVuSans-Bold-79" x="971.716797"/>
      </g>
     </g>
    </g>
    <g id="ytick_4">
     <g id="line2d_16">
      <g>
       <use xlink:href="#m996a8270e7" x="108.021563" y="94.998218" style="fill: #262626; stroke: #262626"/>
      </g>
     </g>
     <g id="text_11">
      <!-- Complex I -->
      <g style="fill: #262626" transform="translate(50.436563 98.417515) scale(0.09 -0.09)">
       <defs>
        <path id="DejaVuSans-Bold-43" d="M 4288 256 
Q 3956 84 3597 -3 
Q 3238 -91 2847 -91 
Q 1681 -91 1000 561 
Q 319 1213 319 2328 
Q 319 3447 1000 4098 
Q 1681 4750 2847 4750 
Q 3238 4750 3597 4662 
Q 3956 4575 4288 4403 
L 4288 3438 
Q 3953 3666 3628 3772 
Q 3303 3878 2944 3878 
Q 2300 3878 1931 3465 
Q 1563 3053 1563 2328 
Q 1563 1606 1931 1193 
Q 2300 781 2944 781 
Q 3303 781 3628 887 
Q 3953 994 4288 1222 
L 4288 256 
z
" transform="scale(0.015625)"/>
        <path id="DejaVuSans-Bold-70" d="M 1656 506 
L 1656 -1331 
L 538 -1331 
L 538 3500 
L 1656 3500 
L 1656 2988 
Q 1888 3294 2169 3439 
Q 2450 3584 2816 3584 
Q 3463 3584 3878 3070 
Q 4294 2556 4294 1747 
Q 4294 938 3878 423 
Q 3463 -91 2816 -91 
Q 2450 -91 2169 54 
Q 1888 200 1656 506 
z
M 2400 2772 
Q 2041 2772 1848 2508 
Q 1656 2244 1656 1747 
Q 1656 1250 1848 986 
Q 2041 722 2400 722 
Q 2759 722 2948 984 
Q 3138 1247 3138 1747 
Q 3138 2247 2948 2509 
Q 2759 2772 2400 2772 
z
" transform="scale(0.015625)"/>
        <path id="DejaVuSans-Bold-78" d="M 1422 1791 
L 159 3500 
L 1344 3500 
L 2059 2463 
L 2784 3500 
L 3969 3500 
L 2706 1797 
L 4031 0 
L 2847 0 
L 2059 1106 
L 1281 0 
L 97 0 
L 1422 1791 
z
" transform="scale(0.015625)"/>
        <path id="DejaVuSans-Bold-49" d="M 588 4666 
L 1791 4666 
L 1791 0 
L 588 0 
L 588 4666 
z
" transform="scale(0.015625)"/>
       </defs>
       <use xlink:href="#DejaVuSans-Bold-43"/>
       <use xlink:href="#DejaVuSans-Bold-6f" x="73.388672"/>
       <use xlink:href="#DejaVuSans-Bold-6d" x="142.089844"/>
       <use xlink:href="#DejaVuSans-Bold-70" x="246.289062"/>
       <use xlink:href="#DejaVuSans-Bold-6c" x="317.871094"/>
       <use xlink:href="#DejaVuSans-Bold-65" x="352.148438"/>
       <use xlink:href="#DejaVuSans-Bold-78" x="419.970703"/>
       <use xlink:href="#DejaVuSans-Bold-20" x="484.472656"/>
       <use xlink:href="#DejaVuSans-Bold-49" x="519.287109"/>
      </g>
     </g>
    </g>
    <g id="ytick_5">
     <g id="line2d_17">
      <g>
       <use xlink:href="#m996a8270e7" x="108.021563" y="106.009804" style="fill: #262626; stroke: #262626"/>
      </g>
     </g>
     <g id="text_12">
      <!--   CI subunits -->
      <g style="fill: #262626" transform="translate(44.770781 109.429101) scale(0.09 -0.09)">
       <defs>
        <path id="DejaVuSans-20" transform="scale(0.015625)"/>
        <path id="DejaVuSans-43" d="M 4122 4306 
L 4122 3641 
Q 3803 3938 3442 4084 
Q 3081 4231 2675 4231 
Q 1875 4231 1450 3742 
Q 1025 3253 1025 2328 
Q 1025 1406 1450 917 
Q 1875 428 2675 428 
Q 3081 428 3442 575 
Q 3803 722 4122 1019 
L 4122 359 
Q 3791 134 3420 21 
Q 3050 -91 2638 -91 
Q 1578 -91 968 557 
Q 359 1206 359 2328 
Q 359 3453 968 4101 
Q 1578 4750 2638 4750 
Q 3056 4750 3426 4639 
Q 3797 4528 4122 4306 
z
" transform="scale(0.015625)"/>
        <path id="DejaVuSans-49" d="M 628 4666 
L 1259 4666 
L 1259 0 
L 628 0 
L 628 4666 
z
" transform="scale(0.015625)"/>
        <path id="DejaVuSans-73" d="M 2834 3397 
L 2834 2853 
Q 2591 2978 2328 3040 
Q 2066 3103 1784 3103 
Q 1356 3103 1142 2972 
Q 928 2841 928 2578 
Q 928 2378 1081 2264 
Q 1234 2150 1697 2047 
L 1894 2003 
Q 2506 1872 2764 1633 
Q 3022 1394 3022 966 
Q 3022 478 2636 193 
Q 2250 -91 1575 -91 
Q 1294 -91 989 -36 
Q 684 19 347 128 
L 347 722 
Q 666 556 975 473 
Q 1284 391 1588 391 
Q 1994 391 2212 530 
Q 2431 669 2431 922 
Q 2431 1156 2273 1281 
Q 2116 1406 1581 1522 
L 1381 1569 
Q 847 1681 609 1914 
Q 372 2147 372 2553 
Q 372 3047 722 3315 
Q 1072 3584 1716 3584 
Q 2034 3584 2315 3537 
Q 2597 3491 2834 3397 
z
" transform="scale(0.015625)"/>
        <path id="DejaVuSans-75" d="M 544 1381 
L 544 3500 
L 1119 3500 
L 1119 1403 
Q 1119 906 1312 657 
Q 1506 409 1894 409 
Q 2359 409 2629 706 
Q 2900 1003 2900 1516 
L 2900 3500 
L 3475 3500 
L 3475 0 
L 2900 0 
L 2900 538 
Q 2691 219 2414 64 
Q 2138 -91 1772 -91 
Q 1169 -91 856 284 
Q 544 659 544 1381 
z
M 1991 3584 
L 1991 3584 
z
" transform="scale(0.015625)"/>
        <path id="DejaVuSans-62" d="M 3116 1747 
Q 3116 2381 2855 2742 
Q 2594 3103 2138 3103 
Q 1681 3103 1420 2742 
Q 1159 2381 1159 1747 
Q 1159 1113 1420 752 
Q 1681 391 2138 391 
Q 2594 391 2855 752 
Q 3116 1113 3116 1747 
z
M 1159 2969 
Q 1341 3281 1617 3432 
Q 1894 3584 2278 3584 
Q 2916 3584 3314 3078 
Q 3713 2572 3713 1747 
Q 3713 922 3314 415 
Q 2916 -91 2278 -91 
Q 1894 -91 1617 61 
Q 1341 213 1159 525 
L 1159 0 
L 581 0 
L 581 4863 
L 1159 4863 
L 1159 2969 
z
" transform="scale(0.015625)"/>
        <path id="DejaVuSans-6e" d="M 3513 2113 
L 3513 0 
L 2938 0 
L 2938 2094 
Q 2938 2591 2744 2837 
Q 2550 3084 2163 3084 
Q 1697 3084 1428 2787 
Q 1159 2491 1159 1978 
L 1159 0 
L 581 0 
L 581 3500 
L 1159 3500 
L 1159 2956 
Q 1366 3272 1645 3428 
Q 1925 3584 2291 3584 
Q 2894 3584 3203 3211 
Q 3513 2838 3513 2113 
z
" transform="scale(0.015625)"/>
        <path id="DejaVuSans-69" d="M 603 3500 
L 1178 3500 
L 1178 0 
L 603 0 
L 603 3500 
z
M 603 4863 
L 1178 4863 
L 1178 4134 
L 603 4134 
L 603 4863 
z
" transform="scale(0.015625)"/>
        <path id="DejaVuSans-74" d="M 1172 4494 
L 1172 3500 
L 2356 3500 
L 2356 3053 
L 1172 3053 
L 1172 1153 
Q 1172 725 1289 603 
Q 1406 481 1766 481 
L 2356 481 
L 2356 0 
L 1766 0 
Q 1100 0 847 248 
Q 594 497 594 1153 
L 594 3053 
L 172 3053 
L 172 3500 
L 594 3500 
L 594 4494 
L 1172 4494 
z
" transform="scale(0.015625)"/>
       </defs>
       <use xlink:href="#DejaVuSans-20"/>
       <use xlink:href="#DejaVuSans-20" x="31.787109"/>
       <use xlink:href="#DejaVuSans-43" x="63.574219"/>
       <use xlink:href="#DejaVuSans-49" x="133.398438"/>
       <use xlink:href="#DejaVuSans-20" x="162.890625"/>
       <use xlink:href="#DejaVuSans-73" x="194.677734"/>
       <use xlink:href="#DejaVuSans-75" x="246.777344"/>
       <use xlink:href="#DejaVuSans-62" x="310.15625"/>
       <use xlink:href="#DejaVuSans-75" x="373.632812"/>
       <use xlink:href="#DejaVuSans-6e" x="437.011719"/>
       <use xlink:href="#DejaVuSans-69" x="500.390625"/>
       <use xlink:href="#DejaVuSans-74" x="528.173828"/>
       <use xlink:href="#DejaVuSans-73" x="567.382812"/>
      </g>
     </g>
    </g>
    <g id="ytick_6">
     <g id="line2d_18">
      <g>
       <use xlink:href="#m996a8270e7" x="108.021563" y="117.021391" style="fill: #262626; stroke: #262626"/>
      </g>
     </g>
     <g id="text_13">
      <!--   CI assembly -->
      <g style="fill: #262626" transform="translate(40.26375 120.440688) scale(0.09 -0.09)">
       <defs>
        <path id="DejaVuSans-61" d="M 2194 1759 
Q 1497 1759 1228 1600 
Q 959 1441 959 1056 
Q 959 750 1161 570 
Q 1363 391 1709 391 
Q 2188 391 2477 730 
Q 2766 1069 2766 1631 
L 2766 1759 
L 2194 1759 
z
M 3341 1997 
L 3341 0 
L 2766 0 
L 2766 531 
Q 2569 213 2275 61 
Q 1981 -91 1556 -91 
Q 1019 -91 701 211 
Q 384 513 384 1019 
Q 384 1609 779 1909 
Q 1175 2209 1959 2209 
L 2766 2209 
L 2766 2266 
Q 2766 2663 2505 2880 
Q 2244 3097 1772 3097 
Q 1472 3097 1187 3025 
Q 903 2953 641 2809 
L 641 3341 
Q 956 3463 1253 3523 
Q 1550 3584 1831 3584 
Q 2591 3584 2966 3190 
Q 3341 2797 3341 1997 
z
" transform="scale(0.015625)"/>
        <path id="DejaVuSans-65" d="M 3597 1894 
L 3597 1613 
L 953 1613 
Q 991 1019 1311 708 
Q 1631 397 2203 397 
Q 2534 397 2845 478 
Q 3156 559 3463 722 
L 3463 178 
Q 3153 47 2828 -22 
Q 2503 -91 2169 -91 
Q 1331 -91 842 396 
Q 353 884 353 1716 
Q 353 2575 817 3079 
Q 1281 3584 2069 3584 
Q 2775 3584 3186 3129 
Q 3597 2675 3597 1894 
z
M 3022 2063 
Q 3016 2534 2758 2815 
Q 2500 3097 2075 3097 
Q 1594 3097 1305 2825 
Q 1016 2553 972 2059 
L 3022 2063 
z
" transform="scale(0.015625)"/>
        <path id="DejaVuSans-6d" d="M 3328 2828 
Q 3544 3216 3844 3400 
Q 4144 3584 4550 3584 
Q 5097 3584 5394 3201 
Q 5691 2819 5691 2113 
L 5691 0 
L 5113 0 
L 5113 2094 
Q 5113 2597 4934 2840 
Q 4756 3084 4391 3084 
Q 3944 3084 3684 2787 
Q 3425 2491 3425 1978 
L 3425 0 
L 2847 0 
L 2847 2094 
Q 2847 2600 2669 2842 
Q 2491 3084 2119 3084 
Q 1678 3084 1418 2786 
Q 1159 2488 1159 1978 
L 1159 0 
L 581 0 
L 581 3500 
L 1159 3500 
L 1159 2956 
Q 1356 3278 1631 3431 
Q 1906 3584 2284 3584 
Q 2666 3584 2933 3390 
Q 3200 3197 3328 2828 
z
" transform="scale(0.015625)"/>
        <path id="DejaVuSans-6c" d="M 603 4863 
L 1178 4863 
L 1178 0 
L 603 0 
L 603 4863 
z
" transform="scale(0.015625)"/>
        <path id="DejaVuSans-79" d="M 2059 -325 
Q 1816 -950 1584 -1140 
Q 1353 -1331 966 -1331 
L 506 -1331 
L 506 -850 
L 844 -850 
Q 1081 -850 1212 -737 
Q 1344 -625 1503 -206 
L 1606 56 
L 191 3500 
L 800 3500 
L 1894 763 
L 2988 3500 
L 3597 3500 
L 2059 -325 
z
" transform="scale(0.015625)"/>
       </defs>
       <use xlink:href="#DejaVuSans-20"/>
       <use xlink:href="#DejaVuSans-20" x="31.787109"/>
       <use xlink:href="#DejaVuSans-43" x="63.574219"/>
       <use xlink:href="#DejaVuSans-49" x="133.398438"/>
       <use xlink:href="#DejaVuSans-20" x="162.890625"/>
       <use xlink:href="#DejaVuSans-61" x="194.677734"/>
       <use xlink:href="#DejaVuSans-73" x="255.957031"/>
       <use xlink:href="#DejaVuSans-73" x="308.056641"/>
       <use xlink:href="#DejaVuSans-65" x="360.15625"/>
       <use xlink:href="#DejaVuSans-6d" x="421.679688"/>
       <use xlink:href="#DejaVuSans-62" x="519.091797"/>
       <use xlink:href="#DejaVuSans-6c" x="582.568359"/>
       <use xlink:href="#DejaVuSans-79" x="610.351562"/>
      </g>
     </g>
    </g>
    <g id="ytick_7">
     <g id="line2d_19">
      <g>
       <use xlink:href="#m996a8270e7" x="108.021563" y="132.437612" style="fill: #262626; stroke: #262626"/>
      </g>
     </g>
     <g id="text_14">
      <!-- Complex IV -->
      <g style="fill: #262626" transform="translate(43.471406 135.856909) scale(0.09 -0.09)">
       <defs>
        <path id="DejaVuSans-Bold-56" d="M 31 4666 
L 1241 4666 
L 2478 1222 
L 3713 4666 
L 4922 4666 
L 3194 0 
L 1759 0 
L 31 4666 
z
" transform="scale(0.015625)"/>
       </defs>
       <use xlink:href="#DejaVuSans-Bold-43"/>
       <use xlink:href="#DejaVuSans-Bold-6f" x="73.388672"/>
       <use xlink:href="#DejaVuSans-Bold-6d" x="142.089844"/>
       <use xlink:href="#DejaVuSans-Bold-70" x="246.289062"/>
       <use xlink:href="#DejaVuSans-Bold-6c" x="317.871094"/>
       <use xlink:href="#DejaVuSans-Bold-65" x="352.148438"/>
       <use xlink:href="#DejaVuSans-Bold-78" x="419.970703"/>
       <use xlink:href="#DejaVuSans-Bold-20" x="484.472656"/>
       <use xlink:href="#DejaVuSans-Bold-49" x="519.287109"/>
       <use xlink:href="#DejaVuSans-Bold-56" x="556.494141"/>
      </g>
     </g>
    </g>
    <g id="ytick_8">
     <g id="line2d_20">
      <g>
       <use xlink:href="#m996a8270e7" x="108.021563" y="143.449198" style="fill: #262626; stroke: #262626"/>
      </g>
     </g>
     <g id="text_15">
      <!--   CIV subunits -->
      <g style="fill: #262626" transform="translate(38.614219 146.868495) scale(0.09 -0.09)">
       <defs>
        <path id="DejaVuSans-56" d="M 1831 0 
L 50 4666 
L 709 4666 
L 2188 738 
L 3669 4666 
L 4325 4666 
L 2547 0 
L 1831 0 
z
" transform="scale(0.015625)"/>
       </defs>
       <use xlink:href="#DejaVuSans-20"/>
       <use xlink:href="#DejaVuSans-20" x="31.787109"/>
       <use xlink:href="#DejaVuSans-43" x="63.574219"/>
       <use xlink:href="#DejaVuSans-49" x="133.398438"/>
       <use xlink:href="#DejaVuSans-56" x="162.890625"/>
       <use xlink:href="#DejaVuSans-20" x="231.298828"/>
       <use xlink:href="#DejaVuSans-73" x="263.085938"/>
       <use xlink:href="#DejaVuSans-75" x="315.185547"/>
       <use xlink:href="#DejaVuSans-62" x="378.564453"/>
       <use xlink:href="#DejaVuSans-75" x="442.041016"/>
       <use xlink:href="#DejaVuSans-6e" x="505.419922"/>
       <use xlink:href="#DejaVuSans-69" x="568.798828"/>
       <use xlink:href="#DejaVuSans-74" x="596.582031"/>
       <use xlink:href="#DejaVuSans-73" x="635.791016"/>
      </g>
     </g>
    </g>
    <g id="ytick_9">
     <g id="line2d_21">
      <g>
       <use xlink:href="#m996a8270e7" x="108.021563" y="154.460785" style="fill: #262626; stroke: #262626"/>
      </g>
     </g>
     <g id="text_16">
      <!--   CIV assembly -->
      <g style="fill: #262626" transform="translate(34.107188 157.880082) scale(0.09 -0.09)">
       <use xlink:href="#DejaVuSans-20"/>
       <use xlink:href="#DejaVuSans-20" x="31.787109"/>
       <use xlink:href="#DejaVuSans-43" x="63.574219"/>
       <use xlink:href="#DejaVuSans-49" x="133.398438"/>
       <use xlink:href="#DejaVuSans-56" x="162.890625"/>
       <use xlink:href="#DejaVuSans-20" x="231.298828"/>
       <use xlink:href="#DejaVuSans-61" x="263.085938"/>
       <use xlink:href="#DejaVuSans-73" x="324.365234"/>
       <use xlink:href="#DejaVuSans-73" x="376.464844"/>
       <use xlink:href="#DejaVuSans-65" x="428.564453"/>
       <use xlink:href="#DejaVuSans-6d" x="490.087891"/>
       <use xlink:href="#DejaVuSans-62" x="587.5"/>
       <use xlink:href="#DejaVuSans-6c" x="650.976562"/>
       <use xlink:href="#DejaVuSans-79" x="678.759766"/>
      </g>
     </g>
    </g>
    <g id="ytick_10">
     <g id="line2d_22">
      <g>
       <use xlink:href="#m996a8270e7" x="108.021563" y="169.877006" style="fill: #262626; stroke: #262626"/>
      </g>
     </g>
     <g id="text_17">
      <!-- Complex V -->
      <g style="fill: #262626" transform="translate(46.819688 173.296303) scale(0.09 -0.09)">
       <use xlink:href="#DejaVuSans-Bold-43"/>
       <use xlink:href="#DejaVuSans-Bold-6f" x="73.388672"/>
       <use xlink:href="#DejaVuSans-Bold-6d" x="142.089844"/>
       <use xlink:href="#DejaVuSans-Bold-70" x="246.289062"/>
       <use xlink:href="#DejaVuSans-Bold-6c" x="317.871094"/>
       <use xlink:href="#DejaVuSans-Bold-65" x="352.148438"/>
       <use xlink:href="#DejaVuSans-Bold-78" x="419.970703"/>
       <use xlink:href="#DejaVuSans-Bold-20" x="484.472656"/>
       <use xlink:href="#DejaVuSans-Bold-56" x="519.287109"/>
      </g>
     </g>
    </g>
    <g id="ytick_11">
     <g id="line2d_23">
      <g>
       <use xlink:href="#m996a8270e7" x="108.021563" y="180.888592" style="fill: #262626; stroke: #262626"/>
      </g>
     </g>
     <g id="text_18">
      <!--   CV subunits -->
      <g style="fill: #262626" transform="translate(41.269219 184.307889) scale(0.09 -0.09)">
       <use xlink:href="#DejaVuSans-20"/>
       <use xlink:href="#DejaVuSans-20" x="31.787109"/>
       <use xlink:href="#DejaVuSans-43" x="63.574219"/>
       <use xlink:href="#DejaVuSans-56" x="133.398438"/>
       <use xlink:href="#DejaVuSans-20" x="201.806641"/>
       <use xlink:href="#DejaVuSans-73" x="233.59375"/>
       <use xlink:href="#DejaVuSans-75" x="285.693359"/>
       <use xlink:href="#DejaVuSans-62" x="349.072266"/>
       <use xlink:href="#DejaVuSans-75" x="412.548828"/>
       <use xlink:href="#DejaVuSans-6e" x="475.927734"/>
       <use xlink:href="#DejaVuSans-69" x="539.306641"/>
       <use xlink:href="#DejaVuSans-74" x="567.089844"/>
       <use xlink:href="#DejaVuSans-73" x="606.298828"/>
      </g>
     </g>
    </g>
    <g id="ytick_12">
     <g id="line2d_24">
      <g>
       <use xlink:href="#m996a8270e7" x="108.021563" y="191.900179" style="fill: #262626; stroke: #262626"/>
      </g>
     </g>
     <g id="text_19">
      <!--   CV assembly -->
      <g style="fill: #262626" transform="translate(36.762188 195.319476) scale(0.09 -0.09)">
       <use xlink:href="#DejaVuSans-20"/>
       <use xlink:href="#DejaVuSans-20" x="31.787109"/>
       <use xlink:href="#DejaVuSans-43" x="63.574219"/>
       <use xlink:href="#DejaVuSans-56" x="133.398438"/>
       <use xlink:href="#DejaVuSans-20" x="201.806641"/>
       <use xlink:href="#DejaVuSans-61" x="233.59375"/>
       <use xlink:href="#DejaVuSans-73" x="294.873047"/>
       <use xlink:href="#DejaVuSans-73" x="346.972656"/>
       <use xlink:href="#DejaVuSans-65" x="399.072266"/>
       <use xlink:href="#DejaVuSans-6d" x="460.595703"/>
       <use xlink:href="#DejaVuSans-62" x="558.007812"/>
       <use xlink:href="#DejaVuSans-6c" x="621.484375"/>
       <use xlink:href="#DejaVuSans-79" x="649.267578"/>
      </g>
     </g>
    </g>
    <g id="ytick_13">
     <g id="line2d_25">
      <g>
       <use xlink:href="#m996a8270e7" x="108.021563" y="207.3164" style="fill: #262626; stroke: #262626"/>
      </g>
     </g>
     <g id="text_20">
      <!-- Complex III -->
      <g style="fill: #262626" transform="translate(43.74 210.735697) scale(0.09 -0.09)">
       <use xlink:href="#DejaVuSans-Bold-43"/>
       <use xlink:href="#DejaVuSans-Bold-6f" x="73.388672"/>
       <use xlink:href="#DejaVuSans-Bold-6d" x="142.089844"/>
       <use xlink:href="#DejaVuSans-Bold-70" x="246.289062"/>
       <use xlink:href="#DejaVuSans-Bold-6c" x="317.871094"/>
       <use xlink:href="#DejaVuSans-Bold-65" x="352.148438"/>
       <use xlink:href="#DejaVuSans-Bold-78" x="419.970703"/>
       <use xlink:href="#DejaVuSans-Bold-20" x="484.472656"/>
       <use xlink:href="#DejaVuSans-Bold-49" x="519.287109"/>
       <use xlink:href="#DejaVuSans-Bold-49" x="556.494141"/>
       <use xlink:href="#DejaVuSans-Bold-49" x="593.701172"/>
      </g>
     </g>
    </g>
    <g id="ytick_14">
     <g id="line2d_26">
      <g>
       <use xlink:href="#m996a8270e7" x="108.021563" y="218.327986" style="fill: #262626; stroke: #262626"/>
      </g>
     </g>
     <g id="text_21">
      <!--   CIII subunits -->
      <g style="fill: #262626" transform="translate(39.460781 221.747283) scale(0.09 -0.09)">
       <use xlink:href="#DejaVuSans-20"/>
       <use xlink:href="#DejaVuSans-20" x="31.787109"/>
       <use xlink:href="#DejaVuSans-43" x="63.574219"/>
       <use xlink:href="#DejaVuSans-49" x="133.398438"/>
       <use xlink:href="#DejaVuSans-49" x="162.890625"/>
       <use xlink:href="#DejaVuSans-49" x="192.382812"/>
       <use xlink:href="#DejaVuSans-20" x="221.875"/>
       <use xlink:href="#DejaVuSans-73" x="253.662109"/>
       <use xlink:href="#DejaVuSans-75" x="305.761719"/>
       <use xlink:href="#DejaVuSans-62" x="369.140625"/>
       <use xlink:href="#DejaVuSans-75" x="432.617188"/>
       <use xlink:href="#DejaVuSans-6e" x="495.996094"/>
       <use xlink:href="#DejaVuSans-69" x="559.375"/>
       <use xlink:href="#DejaVuSans-74" x="587.158203"/>
       <use xlink:href="#DejaVuSans-73" x="626.367188"/>
      </g>
     </g>
    </g>
    <g id="ytick_15">
     <g id="line2d_27">
      <g>
       <use xlink:href="#m996a8270e7" x="108.021563" y="229.339573" style="fill: #262626; stroke: #262626"/>
      </g>
     </g>
     <g id="text_22">
      <!--   CIII assembly -->
      <g style="fill: #262626" transform="translate(34.95375 232.75887) scale(0.09 -0.09)">
       <use xlink:href="#DejaVuSans-20"/>
       <use xlink:href="#DejaVuSans-20" x="31.787109"/>
       <use xlink:href="#DejaVuSans-43" x="63.574219"/>
       <use xlink:href="#DejaVuSans-49" x="133.398438"/>
       <use xlink:href="#DejaVuSans-49" x="162.890625"/>
       <use xlink:href="#DejaVuSans-49" x="192.382812"/>
       <use xlink:href="#DejaVuSans-20" x="221.875"/>
       <use xlink:href="#DejaVuSans-61" x="253.662109"/>
       <use xlink:href="#DejaVuSans-73" x="314.941406"/>
       <use xlink:href="#DejaVuSans-73" x="367.041016"/>
       <use xlink:href="#DejaVuSans-65" x="419.140625"/>
       <use xlink:href="#DejaVuSans-6d" x="480.664062"/>
       <use xlink:href="#DejaVuSans-62" x="578.076172"/>
       <use xlink:href="#DejaVuSans-6c" x="641.552734"/>
       <use xlink:href="#DejaVuSans-79" x="669.335938"/>
      </g>
     </g>
    </g>
    <g id="ytick_16">
     <g id="line2d_28">
      <g>
       <use xlink:href="#m996a8270e7" x="108.021563" y="244.755794" style="fill: #262626; stroke: #262626"/>
      </g>
     </g>
     <g id="text_23">
      <!-- Complex II -->
      <g style="fill: #262626" transform="translate(47.088281 248.175091) scale(0.09 -0.09)">
       <use xlink:href="#DejaVuSans-Bold-43"/>
       <use xlink:href="#DejaVuSans-Bold-6f" x="73.388672"/>
       <use xlink:href="#DejaVuSans-Bold-6d" x="142.089844"/>
       <use xlink:href="#DejaVuSans-Bold-70" x="246.289062"/>
       <use xlink:href="#DejaVuSans-Bold-6c" x="317.871094"/>
       <use xlink:href="#DejaVuSans-Bold-65" x="352.148438"/>
       <use xlink:href="#DejaVuSans-Bold-78" x="419.970703"/>
       <use xlink:href="#DejaVuSans-Bold-20" x="484.472656"/>
       <use xlink:href="#DejaVuSans-Bold-49" x="519.287109"/>
       <use xlink:href="#DejaVuSans-Bold-49" x="556.494141"/>
      </g>
     </g>
    </g>
    <g id="ytick_17">
     <g id="line2d_29">
      <g>
       <use xlink:href="#m996a8270e7" x="108.021563" y="255.76738" style="fill: #262626; stroke: #262626"/>
      </g>
     </g>
     <g id="text_24">
      <!--   CII subunits -->
      <g style="fill: #262626" transform="translate(42.115781 259.186677) scale(0.09 -0.09)">
       <use xlink:href="#DejaVuSans-20"/>
       <use xlink:href="#DejaVuSans-20" x="31.787109"/>
       <use xlink:href="#DejaVuSans-43" x="63.574219"/>
       <use xlink:href="#DejaVuSans-49" x="133.398438"/>
       <use xlink:href="#DejaVuSans-49" x="162.890625"/>
       <use xlink:href="#DejaVuSans-20" x="192.382812"/>
       <use xlink:href="#DejaVuSans-73" x="224.169922"/>
       <use xlink:href="#DejaVuSans-75" x="276.269531"/>
       <use xlink:href="#DejaVuSans-62" x="339.648438"/>
       <use xlink:href="#DejaVuSans-75" x="403.125"/>
       <use xlink:href="#DejaVuSans-6e" x="466.503906"/>
       <use xlink:href="#DejaVuSans-69" x="529.882812"/>
       <use xlink:href="#DejaVuSans-74" x="557.666016"/>
       <use xlink:href="#DejaVuSans-73" x="596.875"/>
      </g>
     </g>
    </g>
    <g id="ytick_18">
     <g id="line2d_30">
      <g>
       <use xlink:href="#m996a8270e7" x="108.021563" y="266.778967" style="fill: #262626; stroke: #262626"/>
      </g>
     </g>
     <g id="text_25">
      <!--   CII assembly -->
      <g style="fill: #262626" transform="translate(37.60875 270.198264) scale(0.09 -0.09)">
       <use xlink:href="#DejaVuSans-20"/>
       <use xlink:href="#DejaVuSans-20" x="31.787109"/>
       <use xlink:href="#DejaVuSans-43" x="63.574219"/>
       <use xlink:href="#DejaVuSans-49" x="133.398438"/>
       <use xlink:href="#DejaVuSans-49" x="162.890625"/>
       <use xlink:href="#DejaVuSans-20" x="192.382812"/>
       <use xlink:href="#DejaVuSans-61" x="224.169922"/>
       <use xlink:href="#DejaVuSans-73" x="285.449219"/>
       <use xlink:href="#DejaVuSans-73" x="337.548828"/>
       <use xlink:href="#DejaVuSans-65" x="389.648438"/>
       <use xlink:href="#DejaVuSans-6d" x="451.171875"/>
       <use xlink:href="#DejaVuSans-62" x="548.583984"/>
       <use xlink:href="#DejaVuSans-6c" x="612.060547"/>
       <use xlink:href="#DejaVuSans-79" x="639.84375"/>
      </g>
     </g>
    </g>
   </g>
   <g id="patch_3">
    <path d="M 108.021563 53.429479 
L 486.459359 53.429479 
L 486.459359 44.069631 
L 108.021563 44.069631 
z
" clip-path="url(#pf52e5a4f17)" style="fill: #4477aa; opacity: 0.9; stroke: #ffffff; stroke-width: 0.5; stroke-linejoin: miter"/>
   </g>
   <g id="patch_4">
    <path d="M 108.021563 67.469252 
L 301.102071 67.469252 
L 301.102071 60.8623 
L 108.021563 60.8623 
z
" clip-path="url(#pf52e5a4f17)" style="fill: #4477aa; opacity: 0.9; stroke: #ffffff; stroke-width: 0.5; stroke-linejoin: miter"/>
   </g>
   <g id="patch_5">
    <path d="M 108.021563 82.885473 
L 293.378851 82.885473 
L 293.378851 76.278521 
L 108.021563 76.278521 
z
" clip-path="url(#pf52e5a4f17)" style="fill: #4477aa; opacity: 0.9; stroke: #ffffff; stroke-width: 0.5; stroke-linejoin: miter"/>
   </g>
   <g id="patch_6">
    <path d="M 108.021563 98.301694 
L 285.65563 98.301694 
L 285.65563 91.694742 
L 108.021563 91.694742 
z
" clip-path="url(#pf52e5a4f17)" style="fill: #4477aa; opacity: 0.9; stroke: #ffffff; stroke-width: 0.5; stroke-linejoin: miter"/>
   </g>
   <g id="patch_7">
    <path d="M 108.021563 107.936832 
L 216.146647 107.936832 
L 216.146647 104.082777 
L 108.021563 104.082777 
z
" clip-path="url(#pf52e5a4f17)" style="fill: #4477aa; opacity: 0.9; stroke: #ffffff; stroke-width: 0.5; stroke-linejoin: miter"/>
   </g>
   <g id="patch_8">
    <path d="M 108.021563 118.948419 
L 177.530546 118.948419 
L 177.530546 115.094363 
L 108.021563 115.094363 
z
" clip-path="url(#pf52e5a4f17)" style="fill: #4477aa; opacity: 0.9; stroke: #ffffff; stroke-width: 0.5; stroke-linejoin: miter"/>
   </g>
   <g id="patch_9">
    <path d="M 108.021563 135.741088 
L 200.700207 135.741088 
L 200.700207 129.134136 
L 108.021563 129.134136 
z
" clip-path="url(#pf52e5a4f17)" style="fill: #4477aa; opacity: 0.9; stroke: #ffffff; stroke-width: 0.5; stroke-linejoin: miter"/>
   </g>
   <g id="patch_10">
    <path d="M 108.021563 145.376226 
L 123.468003 145.376226 
L 123.468003 141.522171 
L 108.021563 141.522171 
z
" clip-path="url(#pf52e5a4f17)" style="fill: #4477aa; opacity: 0.9; stroke: #ffffff; stroke-width: 0.5; stroke-linejoin: miter"/>
   </g>
   <g id="patch_11">
    <path d="M 108.021563 156.387812 
L 185.253766 156.387812 
L 185.253766 152.533757 
L 108.021563 152.533757 
z
" clip-path="url(#pf52e5a4f17)" style="fill: #4477aa; opacity: 0.9; stroke: #ffffff; stroke-width: 0.5; stroke-linejoin: miter"/>
   </g>
   <g id="patch_12">
    <path d="M 108.021563 173.180482 
L 154.360885 173.180482 
L 154.360885 166.57353 
L 108.021563 166.57353 
z
" clip-path="url(#pf52e5a4f17)" style="fill: #4477aa; opacity: 0.9; stroke: #ffffff; stroke-width: 0.5; stroke-linejoin: miter"/>
   </g>
   <g id="patch_13">
    <path d="M 108.021563 182.81562 
L 138.914444 182.81562 
L 138.914444 178.961565 
L 108.021563 178.961565 
z
" clip-path="url(#pf52e5a4f17)" style="fill: #4477aa; opacity: 0.9; stroke: #ffffff; stroke-width: 0.5; stroke-linejoin: miter"/>
   </g>
   <g id="patch_14">
    <path d="M 108.021563 193.827206 
L 123.468003 193.827206 
L 123.468003 189.973151 
L 108.021563 189.973151 
z
" clip-path="url(#pf52e5a4f17)" style="fill: #4477aa; opacity: 0.9; stroke: #ffffff; stroke-width: 0.5; stroke-linejoin: miter"/>
   </g>
   <g id="patch_15">
    <path d="M 108.021563 210.619876 
L 138.914444 210.619876 
L 138.914444 204.012924 
L 108.021563 204.012924 
z
" clip-path="url(#pf52e5a4f17)" style="fill: #4477aa; opacity: 0.9; stroke: #ffffff; stroke-width: 0.5; stroke-linejoin: miter"/>
   </g>
   <g id="patch_16">
    <path d="M 108.021563 220.255014 
L 115.744783 220.255014 
L 115.744783 216.400959 
L 108.021563 216.400959 
z
" clip-path="url(#pf52e5a4f17)" style="fill: #4477aa; opacity: 0.9; stroke: #ffffff; stroke-width: 0.5; stroke-linejoin: miter"/>
   </g>
   <g id="patch_17">
    <path d="M 108.021563 231.2666 
L 131.191224 231.2666 
L 131.191224 227.412545 
L 108.021563 227.412545 
z
" clip-path="url(#pf52e5a4f17)" style="fill: #4477aa; opacity: 0.9; stroke: #ffffff; stroke-width: 0.5; stroke-linejoin: miter"/>
   </g>
   <g id="patch_18">
    <path d="M 108.021563 248.05927 
L 131.191224 248.05927 
L 131.191224 241.452318 
L 108.021563 241.452318 
z
" clip-path="url(#pf52e5a4f17)" style="fill: #4477aa; opacity: 0.9; stroke: #ffffff; stroke-width: 0.5; stroke-linejoin: miter"/>
   </g>
   <g id="patch_19">
    <path d="M 108.021563 257.694408 
L 123.468003 257.694408 
L 123.468003 253.840353 
L 108.021563 253.840353 
z
" clip-path="url(#pf52e5a4f17)" style="fill: #4477aa; opacity: 0.9; stroke: #ffffff; stroke-width: 0.5; stroke-linejoin: miter"/>
   </g>
   <g id="patch_20">
    <path d="M 108.021563 268.705994 
L 115.744783 268.705994 
L 115.744783 264.851939 
L 108.021563 264.851939 
z
" clip-path="url(#pf52e5a4f17)" style="fill: #4477aa; opacity: 0.9; stroke: #ffffff; stroke-width: 0.5; stroke-linejoin: miter"/>
   </g>
   <g id="patch_21">
    <path d="M 108.021563 279.937812 
L 108.021563 32.837812 
" style="fill: none; stroke: #262626; stroke-linejoin: miter; stroke-linecap: square"/>
   </g>
   <g id="patch_22">
    <path d="M 108.021563 279.937812 
L 563.691562 279.937812 
" style="fill: none; stroke: #262626; stroke-linejoin: miter; stroke-linecap: square"/>
   </g>
   <g id="text_26">
    <!-- 49/168*** -->
    <g transform="translate(498.04419 50.957055) scale(0.08 -0.08)">
     <defs>
      <path id="DejaVuSans-39" d="M 703 97 
L 703 672 
Q 941 559 1184 500 
Q 1428 441 1663 441 
Q 2288 441 2617 861 
Q 2947 1281 2994 2138 
Q 2813 1869 2534 1725 
Q 2256 1581 1919 1581 
Q 1219 1581 811 2004 
Q 403 2428 403 3163 
Q 403 3881 828 4315 
Q 1253 4750 1959 4750 
Q 2769 4750 3195 4129 
Q 3622 3509 3622 2328 
Q 3622 1225 3098 567 
Q 2575 -91 1691 -91 
Q 1453 -91 1209 -44 
Q 966 3 703 97 
z
M 1959 2075 
Q 2384 2075 2632 2365 
Q 2881 2656 2881 3163 
Q 2881 3666 2632 3958 
Q 2384 4250 1959 4250 
Q 1534 4250 1286 3958 
Q 1038 3666 1038 3163 
Q 1038 2656 1286 2365 
Q 1534 2075 1959 2075 
z
" transform="scale(0.015625)"/>
      <path id="DejaVuSans-2f" d="M 1625 4666 
L 2156 4666 
L 531 -594 
L 0 -594 
L 1625 4666 
z
" transform="scale(0.015625)"/>
      <path id="DejaVuSans-36" d="M 2113 2584 
Q 1688 2584 1439 2293 
Q 1191 2003 1191 1497 
Q 1191 994 1439 701 
Q 1688 409 2113 409 
Q 2538 409 2786 701 
Q 3034 994 3034 1497 
Q 3034 2003 2786 2293 
Q 2538 2584 2113 2584 
z
M 3366 4563 
L 3366 3988 
Q 3128 4100 2886 4159 
Q 2644 4219 2406 4219 
Q 1781 4219 1451 3797 
Q 1122 3375 1075 2522 
Q 1259 2794 1537 2939 
Q 1816 3084 2150 3084 
Q 2853 3084 3261 2657 
Q 3669 2231 3669 1497 
Q 3669 778 3244 343 
Q 2819 -91 2113 -91 
Q 1303 -91 875 529 
Q 447 1150 447 2328 
Q 447 3434 972 4092 
Q 1497 4750 2381 4750 
Q 2619 4750 2861 4703 
Q 3103 4656 3366 4563 
z
" transform="scale(0.015625)"/>
      <path id="DejaVuSans-38" d="M 2034 2216 
Q 1584 2216 1326 1975 
Q 1069 1734 1069 1313 
Q 1069 891 1326 650 
Q 1584 409 2034 409 
Q 2484 409 2743 651 
Q 3003 894 3003 1313 
Q 3003 1734 2745 1975 
Q 2488 2216 2034 2216 
z
M 1403 2484 
Q 997 2584 770 2862 
Q 544 3141 544 3541 
Q 544 4100 942 4425 
Q 1341 4750 2034 4750 
Q 2731 4750 3128 4425 
Q 3525 4100 3525 3541 
Q 3525 3141 3298 2862 
Q 3072 2584 2669 2484 
Q 3125 2378 3379 2068 
Q 3634 1759 3634 1313 
Q 3634 634 3220 271 
Q 2806 -91 2034 -91 
Q 1263 -91 848 271 
Q 434 634 434 1313 
Q 434 1759 690 2068 
Q 947 2378 1403 2484 
z
M 1172 3481 
Q 1172 3119 1398 2916 
Q 1625 2713 2034 2713 
Q 2441 2713 2670 2916 
Q 2900 3119 2900 3481 
Q 2900 3844 2670 4047 
Q 2441 4250 2034 4250 
Q 1625 4250 1398 4047 
Q 1172 3844 1172 3481 
z
" transform="scale(0.015625)"/>
      <path id="DejaVuSans-2a" d="M 3009 3897 
L 1888 3291 
L 3009 2681 
L 2828 2375 
L 1778 3009 
L 1778 1831 
L 1422 1831 
L 1422 3009 
L 372 2375 
L 191 2681 
L 1313 3291 
L 191 3897 
L 372 4206 
L 1422 3572 
L 1422 4750 
L 1778 4750 
L 1778 3572 
L 2828 4206 
L 3009 3897 
z
" transform="scale(0.015625)"/>
     </defs>
     <use xlink:href="#DejaVuSans-34"/>
     <use xlink:href="#DejaVuSans-39" x="63.623047"/>
     <use xlink:href="#DejaVuSans-2f" x="127.246094"/>
     <use xlink:href="#DejaVuSans-31" x="160.9375"/>
     <use xlink:href="#DejaVuSans-36" x="224.560547"/>
     <use xlink:href="#DejaVuSans-38" x="288.183594"/>
     <use xlink:href="#DejaVuSans-2a" x="351.806641"/>
     <use xlink:href="#DejaVuSans-2a" x="401.806641"/>
     <use xlink:href="#DejaVuSans-2a" x="451.806641"/>
    </g>
   </g>
   <g id="text_27">
    <!-- 25/102*** -->
    <g transform="translate(312.686901 66.373276) scale(0.08 -0.08)">
     <use xlink:href="#DejaVuSans-32"/>
     <use xlink:href="#DejaVuSans-35" x="63.623047"/>
     <use xlink:href="#DejaVuSans-2f" x="127.246094"/>
     <use xlink:href="#DejaVuSans-31" x="160.9375"/>
     <use xlink:href="#DejaVuSans-30" x="224.560547"/>
     <use xlink:href="#DejaVuSans-32" x="288.183594"/>
     <use xlink:href="#DejaVuSans-2a" x="351.806641"/>
     <use xlink:href="#DejaVuSans-2a" x="401.806641"/>
     <use xlink:href="#DejaVuSans-2a" x="451.806641"/>
    </g>
   </g>
   <g id="text_28">
    <!-- 24/67*** -->
    <g transform="translate(304.963681 81.789497) scale(0.08 -0.08)">
     <defs>
      <path id="DejaVuSans-37" d="M 525 4666 
L 3525 4666 
L 3525 4397 
L 1831 0 
L 1172 0 
L 2766 4134 
L 525 4134 
L 525 4666 
z
" transform="scale(0.015625)"/>
     </defs>
     <use xlink:href="#DejaVuSans-32"/>
     <use xlink:href="#DejaVuSans-34" x="63.623047"/>
     <use xlink:href="#DejaVuSans-2f" x="127.246094"/>
     <use xlink:href="#DejaVuSans-36" x="160.9375"/>
     <use xlink:href="#DejaVuSans-37" x="224.560547"/>
     <use xlink:href="#DejaVuSans-2a" x="288.183594"/>
     <use xlink:href="#DejaVuSans-2a" x="338.183594"/>
     <use xlink:href="#DejaVuSans-2a" x="388.183594"/>
    </g>
   </g>
   <g id="text_29">
    <!-- 23/64*** -->
    <g transform="translate(297.240461 97.205718) scale(0.08 -0.08)">
     <use xlink:href="#DejaVuSans-32"/>
     <use xlink:href="#DejaVuSans-33" x="63.623047"/>
     <use xlink:href="#DejaVuSans-2f" x="127.246094"/>
     <use xlink:href="#DejaVuSans-36" x="160.9375"/>
     <use xlink:href="#DejaVuSans-34" x="224.560547"/>
     <use xlink:href="#DejaVuSans-2a" x="288.183594"/>
     <use xlink:href="#DejaVuSans-2a" x="338.183594"/>
     <use xlink:href="#DejaVuSans-2a" x="388.183594"/>
    </g>
   </g>
   <g id="text_30">
    <!-- 14/43*** -->
    <g transform="translate(227.731478 108.217304) scale(0.08 -0.08)">
     <use xlink:href="#DejaVuSans-31"/>
     <use xlink:href="#DejaVuSans-34" x="63.623047"/>
     <use xlink:href="#DejaVuSans-2f" x="127.246094"/>
     <use xlink:href="#DejaVuSans-34" x="160.9375"/>
     <use xlink:href="#DejaVuSans-33" x="224.560547"/>
     <use xlink:href="#DejaVuSans-2a" x="288.183594"/>
     <use xlink:href="#DejaVuSans-2a" x="338.183594"/>
     <use xlink:href="#DejaVuSans-2a" x="388.183594"/>
    </g>
   </g>
   <g id="text_31">
    <!-- 9/21** -->
    <g transform="translate(189.115376 119.228891) scale(0.08 -0.08)">
     <use xlink:href="#DejaVuSans-39"/>
     <use xlink:href="#DejaVuSans-2f" x="63.623047"/>
     <use xlink:href="#DejaVuSans-32" x="97.314453"/>
     <use xlink:href="#DejaVuSans-31" x="160.9375"/>
     <use xlink:href="#DejaVuSans-2a" x="224.560547"/>
     <use xlink:href="#DejaVuSans-2a" x="274.560547"/>
    </g>
   </g>
   <g id="text_32">
    <!-- 12/50*** -->
    <g transform="translate(212.285037 134.645112) scale(0.08 -0.08)">
     <use xlink:href="#DejaVuSans-31"/>
     <use xlink:href="#DejaVuSans-32" x="63.623047"/>
     <use xlink:href="#DejaVuSans-2f" x="127.246094"/>
     <use xlink:href="#DejaVuSans-35" x="160.9375"/>
     <use xlink:href="#DejaVuSans-30" x="224.560547"/>
     <use xlink:href="#DejaVuSans-2a" x="288.183594"/>
     <use xlink:href="#DejaVuSans-2a" x="338.183594"/>
     <use xlink:href="#DejaVuSans-2a" x="388.183594"/>
    </g>
   </g>
   <g id="text_33">
    <!-- 2/21 -->
    <g transform="translate(135.052834 145.656698) scale(0.08 -0.08)">
     <use xlink:href="#DejaVuSans-32"/>
     <use xlink:href="#DejaVuSans-2f" x="63.623047"/>
     <use xlink:href="#DejaVuSans-32" x="97.314453"/>
     <use xlink:href="#DejaVuSans-31" x="160.9375"/>
    </g>
   </g>
   <g id="text_34">
    <!-- 10/29** -->
    <g transform="translate(196.838596 156.668285) scale(0.08 -0.08)">
     <use xlink:href="#DejaVuSans-31"/>
     <use xlink:href="#DejaVuSans-30" x="63.623047"/>
     <use xlink:href="#DejaVuSans-2f" x="127.246094"/>
     <use xlink:href="#DejaVuSans-32" x="160.9375"/>
     <use xlink:href="#DejaVuSans-39" x="224.560547"/>
     <use xlink:href="#DejaVuSans-2a" x="288.183594"/>
     <use xlink:href="#DejaVuSans-2a" x="338.183594"/>
    </g>
   </g>
   <g id="text_35">
    <!-- 6/26* -->
    <g transform="translate(165.945715 172.084506) scale(0.08 -0.08)">
     <use xlink:href="#DejaVuSans-36"/>
     <use xlink:href="#DejaVuSans-2f" x="63.623047"/>
     <use xlink:href="#DejaVuSans-32" x="97.314453"/>
     <use xlink:href="#DejaVuSans-36" x="160.9375"/>
     <use xlink:href="#DejaVuSans-2a" x="224.560547"/>
    </g>
   </g>
   <g id="text_36">
    <!-- 4/21 -->
    <g transform="translate(150.499274 183.096092) scale(0.08 -0.08)">
     <use xlink:href="#DejaVuSans-34"/>
     <use xlink:href="#DejaVuSans-2f" x="63.623047"/>
     <use xlink:href="#DejaVuSans-32" x="97.314453"/>
     <use xlink:href="#DejaVuSans-31" x="160.9375"/>
    </g>
   </g>
   <g id="text_37">
    <!-- 2/5 -->
    <g transform="translate(135.052834 194.107679) scale(0.08 -0.08)">
     <use xlink:href="#DejaVuSans-32"/>
     <use xlink:href="#DejaVuSans-2f" x="63.623047"/>
     <use xlink:href="#DejaVuSans-35" x="97.314453"/>
    </g>
   </g>
   <g id="text_38">
    <!-- 4/16 -->
    <g transform="translate(150.499274 209.5239) scale(0.08 -0.08)">
     <use xlink:href="#DejaVuSans-34"/>
     <use xlink:href="#DejaVuSans-2f" x="63.623047"/>
     <use xlink:href="#DejaVuSans-31" x="97.314453"/>
     <use xlink:href="#DejaVuSans-36" x="160.9375"/>
    </g>
   </g>
   <g id="text_39">
    <!-- 1/10 -->
    <g transform="translate(127.329613 220.535486) scale(0.08 -0.08)">
     <use xlink:href="#DejaVuSans-31"/>
     <use xlink:href="#DejaVuSans-2f" x="63.623047"/>
     <use xlink:href="#DejaVuSans-31" x="97.314453"/>
     <use xlink:href="#DejaVuSans-30" x="160.9375"/>
    </g>
   </g>
   <g id="text_40">
    <!-- 3/6 -->
    <g transform="translate(142.776054 231.547073) scale(0.08 -0.08)">
     <use xlink:href="#DejaVuSans-33"/>
     <use xlink:href="#DejaVuSans-2f" x="63.623047"/>
     <use xlink:href="#DejaVuSans-36" x="97.314453"/>
    </g>
   </g>
   <g id="text_41">
    <!-- 3/8 -->
    <g transform="translate(142.776054 246.963294) scale(0.08 -0.08)">
     <use xlink:href="#DejaVuSans-33"/>
     <use xlink:href="#DejaVuSans-2f" x="63.623047"/>
     <use xlink:href="#DejaVuSans-38" x="97.314453"/>
    </g>
   </g>
   <g id="text_42">
    <!-- 2/4 -->
    <g transform="translate(135.052834 257.97488) scale(0.08 -0.08)">
     <use xlink:href="#DejaVuSans-32"/>
     <use xlink:href="#DejaVuSans-2f" x="63.623047"/>
     <use xlink:href="#DejaVuSans-34" x="97.314453"/>
    </g>
   </g>
   <g id="text_43">
    <!-- 1/4 -->
    <g transform="translate(127.329613 268.986467) scale(0.08 -0.08)">
     <use xlink:href="#DejaVuSans-31"/>
     <use xlink:href="#DejaVuSans-2f" x="63.623047"/>
     <use xlink:href="#DejaVuSans-34" x="97.314453"/>
    </g>
   </g>
   <g id="text_44">
    <!-- OXPHOS Pathway Hierarchical Analysis -->
    <g style="fill: #262626" transform="translate(181.677187 17.837812) scale(0.14 -0.14)">
     <defs>
      <path id="DejaVuSans-Bold-68" d="M 4056 2131 
L 4056 0 
L 2931 0 
L 2931 347 
L 2931 1625 
Q 2931 2084 2911 2256 
Q 2891 2428 2841 2509 
Q 2775 2619 2662 2680 
Q 2550 2741 2406 2741 
Q 2056 2741 1856 2470 
Q 1656 2200 1656 1722 
L 1656 0 
L 538 0 
L 538 4863 
L 1656 4863 
L 1656 2988 
Q 1909 3294 2193 3439 
Q 2478 3584 2822 3584 
Q 3428 3584 3742 3212 
Q 4056 2841 4056 2131 
z
" transform="scale(0.015625)"/>
      <path id="DejaVuSans-Bold-77" d="M 225 3500 
L 1313 3500 
L 1900 1088 
L 2491 3500 
L 3425 3500 
L 4013 1113 
L 4603 3500 
L 5691 3500 
L 4769 0 
L 3547 0 
L 2956 2406 
L 2369 0 
L 1147 0 
L 225 3500 
z
" transform="scale(0.015625)"/>
      <path id="DejaVuSans-Bold-63" d="M 3366 3391 
L 3366 2478 
Q 3138 2634 2908 2709 
Q 2678 2784 2431 2784 
Q 1963 2784 1702 2511 
Q 1441 2238 1441 1747 
Q 1441 1256 1702 982 
Q 1963 709 2431 709 
Q 2694 709 2930 787 
Q 3166 866 3366 1019 
L 3366 103 
Q 3103 6 2833 -42 
Q 2563 -91 2291 -91 
Q 1344 -91 809 395 
Q 275 881 275 1747 
Q 275 2613 809 3098 
Q 1344 3584 2291 3584 
Q 2566 3584 2833 3536 
Q 3100 3488 3366 3391 
z
" transform="scale(0.015625)"/>
      <path id="DejaVuSans-Bold-41" d="M 3419 850 
L 1538 850 
L 1241 0 
L 31 0 
L 1759 4666 
L 3194 4666 
L 4922 0 
L 3713 0 
L 3419 850 
z
M 1838 1716 
L 3116 1716 
L 2478 3572 
L 1838 1716 
z
" transform="scale(0.015625)"/>
     </defs>
     <use xlink:href="#DejaVuSans-Bold-4f"/>
     <use xlink:href="#DejaVuSans-Bold-58" x="81.384766"/>
     <use xlink:href="#DejaVuSans-Bold-50" x="158.484375"/>
     <use xlink:href="#DejaVuSans-Bold-48" x="231.775391"/>
     <use xlink:href="#DejaVuSans-Bold-4f" x="315.466797"/>
     <use xlink:href="#DejaVuSans-Bold-53" x="400.476562"/>
     <use xlink:href="#DejaVuSans-Bold-20" x="472.498047"/>
     <use xlink:href="#DejaVuSans-Bold-50" x="507.3125"/>
     <use xlink:href="#DejaVuSans-Bold-61" x="577.978516"/>
     <use xlink:href="#DejaVuSans-Bold-74" x="645.458984"/>
     <use xlink:href="#DejaVuSans-Bold-68" x="693.261719"/>
     <use xlink:href="#DejaVuSans-Bold-77" x="764.453125"/>
     <use xlink:href="#DejaVuSans-Bold-61" x="856.835938"/>
     <use xlink:href="#DejaVuSans-Bold-79" x="921.191406"/>
     <use xlink:href="#DejaVuSans-Bold-20" x="986.376953"/>
     <use xlink:href="#DejaVuSans-Bold-48" x="1021.191406"/>
     <use xlink:href="#DejaVuSans-Bold-69" x="1104.882812"/>
     <use xlink:href="#DejaVuSans-Bold-65" x="1139.160156"/>
     <use xlink:href="#DejaVuSans-Bold-72" x="1206.982422"/>
     <use xlink:href="#DejaVuSans-Bold-61" x="1256.298828"/>
     <use xlink:href="#DejaVuSans-Bold-72" x="1323.779297"/>
     <use xlink:href="#DejaVuSans-Bold-63" x="1373.095703"/>
     <use xlink:href="#DejaVuSans-Bold-68" x="1432.373047"/>
     <use xlink:href="#DejaVuSans-Bold-69" x="1503.564453"/>
     <use xlink:href="#DejaVuSans-Bold-63" x="1537.841797"/>
     <use xlink:href="#DejaVuSans-Bold-61" x="1597.119141"/>
     <use xlink:href="#DejaVuSans-Bold-6c" x="1664.599609"/>
     <use xlink:href="#DejaVuSans-Bold-20" x="1698.876953"/>
     <use xlink:href="#DejaVuSans-Bold-41" x="1733.691406"/>
     <use xlink:href="#DejaVuSans-Bold-6e" x="1811.083984"/>
     <use xlink:href="#DejaVuSans-Bold-61" x="1882.275391"/>
     <use xlink:href="#DejaVuSans-Bold-6c" x="1949.755859"/>
     <use xlink:href="#DejaVuSans-Bold-79" x="1984.033203"/>
     <use xlink:href="#DejaVuSans-Bold-73" x="2049.21875"/>
     <use xlink:href="#DejaVuSans-Bold-69" x="2108.740234"/>
     <use xlink:href="#DejaVuSans-Bold-73" x="2143.017578"/>
    </g>
   </g>
  </g>
 </g>
 <defs>
  <clipPath id="pf52e5a4f17">
   <rect x="108.021563" y="32.837812" width="455.67" height="247.1"/>
  </clipPath>
 </defs>
</svg>
